<svg id="visual" viewBox="0 0 540 960" width="540" height="960" xmlns="http://www.w3.org/2000/svg" xmlns:xlink="http://www.w3.org/1999/xlink" version="1.1"><rect x="0" y="0" width="540" height="960" fill="#001220"></rect><path d="M0 658L12.8 656.2C25.7 654.3 51.3 650.7 77 646.5C102.7 642.3 128.3 637.7 154 628.3C179.7 619 205.3 605 231.2 616.8C257 628.7 283 666.3 308.8 687.5C334.7 708.7 360.3 713.3 386 689.7C411.7 666 437.3 614 463 596.7C488.7 579.3 514.3 596.7 527.2 605.3L540 614L540 961L527.2 961C514.3 961 488.7 961 463 961C437.3 961 411.7 961 386 961C360.3 961 334.7 961 308.8 961C283 961 257 961 231.2 961C205.3 961 179.7 961 154 961C128.3 961 102.7 961 77 961C51.3 961 25.7 961 12.8 961L0 961Z" fill="#fa7268"></path><path d="M0 633L12.8 650.3C25.7 667.7 51.3 702.3 77 720.7C102.7 739 128.3 741 154 741C179.7 741 205.3 739 231.2 721.3C257 703.7 283 670.3 308.8 667.7C334.7 665 360.3 693 386 706.3C411.7 719.7 437.3 718.3 463 706.7C488.7 695 514.3 673 527.2 662L540 651L540 961L527.2 961C514.3 961 488.7 961 463 961C437.3 961 411.7 961 386 961C360.3 961 334.7 961 308.8 961C283 961 257 961 231.2 961C205.3 961 179.7 961 154 961C128.3 961 102.7 961 77 961C51.3 961 25.7 961 12.8 961L0 961Z" fill="#ef5f67"></path><path d="M0 732L12.8 741.2C25.7 750.3 51.3 768.7 77 779C102.7 789.3 128.3 791.7 154 788.5C179.7 785.3 205.3 776.7 231.2 762.7C257 748.7 283 729.3 308.8 720C334.7 710.7 360.3 711.3 386 710.8C411.7 710.3 437.3 708.7 463 718.7C488.7 728.7 514.3 750.3 527.2 761.2L540 772L540 961L527.2 961C514.3 961 488.7 961 463 961C437.3 961 411.7 961 386 961C360.3 961 334.7 961 308.8 961C283 961 257 961 231.2 961C205.3 961 179.7 961 154 961C128.3 961 102.7 961 77 961C51.3 961 25.7 961 12.8 961L0 961Z" fill="#e34c67"></path><path d="M0 840L12.8 833.2C25.7 826.3 51.3 812.7 77 811C102.7 809.3 128.3 819.7 154 824.8C179.7 830 205.3 830 231.2 824.2C257 818.3 283 806.7 308.8 805.7C334.7 804.7 360.3 814.3 386 811.8C411.7 809.3 437.3 794.7 463 787.7C488.7 780.7 514.3 781.3 527.2 781.7L540 782L540 961L527.2 961C514.3 961 488.7 961 463 961C437.3 961 411.7 961 386 961C360.3 961 334.7 961 308.8 961C283 961 257 961 231.2 961C205.3 961 179.7 961 154 961C128.3 961 102.7 961 77 961C51.3 961 25.7 961 12.8 961L0 961Z" fill="#d53867"></path><path d="M0 917L12.8 910.7C25.7 904.3 51.3 891.7 77 884.2C102.7 876.7 128.3 874.3 154 879.2C179.7 884 205.3 896 231.2 896.3C257 896.7 283 885.3 308.8 882.5C334.7 879.7 360.3 885.3 386 883.3C411.7 881.3 437.3 871.7 463 870.8C488.7 870 514.3 878 527.2 882L540 886L540 961L527.2 961C514.3 961 488.7 961 463 961C437.3 961 411.7 961 386 961C360.3 961 334.7 961 308.8 961C283 961 257 961 231.2 961C205.3 961 179.7 961 154 961C128.3 961 102.7 961 77 961C51.3 961 25.7 961 12.8 961L0 961Z" fill="#c62368"></path></svg>